<svg width="69" height="66" fill="none" xmlns="http://www.w3.org/2000/svg"><path d="M50.583 37.404l10.93 2.968L43.01 62.379l-11.139-3.011 18.711-21.964z" fill="url(#prefix__paint0_linear_936_49)"/><path d="M45.217 27.326l5.366 10.078-18.71 21.963-8.327-15.636 5.643-7.31 3.47 6.517 3.698-4.597 8.86-11.015z" fill="url(#prefix__paint1_linear_936_49)"/><path d="M23.32 38.275l-11.008-2.89-5.503-9.941 10.968 2.817 5.543 10.014z" fill="url(#prefix__paint2_linear_936_49)"/><path d="M17.777 28.261L6.81 25.444 24.884 3.153l11.179 2.859-18.286 22.25z" fill="url(#prefix__paint3_linear_936_49)"/><path d="M45.217 27.326l10.968 3.04 5.328 10.006-10.93-2.968-5.366-10.078z" fill="url(#prefix__paint4_linear_936_49)"/><path d="M23.32 38.275L17.777 28.26l18.286-22.25 8.6 15.538-5.502 7.397-3.585-6.476-3.541 4.567-8.715 11.238z" fill="url(#prefix__paint5_linear_936_49)"/><path d="M35.576 22.47l3.585 6.476-3.563-.955-3.563-.954 3.541-4.567z" fill="url(#prefix__paint6_linear_936_49)"/><path d="M32.66 42.938l-3.471-6.517 7.168 1.92-3.698 4.597z" fill="url(#prefix__paint7_linear_936_49)"/><path d="M45.217 27.326l10.968 3.04 5.328 10.006M45.217 27.326l5.366 10.078m-5.366-10.078l-8.86 11.015m14.226-.937l10.93 2.968m-10.93-2.968l-18.71 21.963m29.64-18.995L43.01 62.379l-11.139-3.011m0 0L23.546 43.73l5.643-7.31m0 0l3.47 6.518 3.698-4.597m-7.168-1.92l7.168 1.92m-13.037-.066l-11.008-2.89-5.503-9.941m16.511 12.83l-5.543-10.013m5.543 10.014l8.715-11.238M17.778 28.26l-10.97-2.817m10.97 2.817l18.285-22.25M6.809 25.445L24.884 3.153l11.179 2.859m0 0l8.6 15.537-5.502 7.397m0 0l-3.585-6.476-3.541 4.567m7.126 1.91l-3.563-.956-3.563-.954" stroke="#000"/><defs><linearGradient id="prefix__paint0_linear_936_49" x1="12.737" y1="42.038" x2="44.194" y2="-1.959" gradientUnits="userSpaceOnUse"><stop stop-color="#D9D9D9"/><stop offset="1" stop-color="#fff"/></linearGradient><linearGradient id="prefix__paint1_linear_936_49" x1="12.737" y1="42.038" x2="44.194" y2="-1.959" gradientUnits="userSpaceOnUse"><stop stop-color="#D9D9D9"/><stop offset="1" stop-color="#fff"/></linearGradient><linearGradient id="prefix__paint2_linear_936_49" x1="12.737" y1="42.038" x2="44.194" y2="-1.959" gradientUnits="userSpaceOnUse"><stop stop-color="#D9D9D9"/><stop offset="1" stop-color="#fff"/></linearGradient><linearGradient id="prefix__paint3_linear_936_49" x1="12.737" y1="42.038" x2="44.194" y2="-1.959" gradientUnits="userSpaceOnUse"><stop stop-color="#D9D9D9"/><stop offset="1" stop-color="#fff"/></linearGradient><linearGradient id="prefix__paint4_linear_936_49" x1="12.737" y1="42.038" x2="44.194" y2="-1.959" gradientUnits="userSpaceOnUse"><stop stop-color="#D9D9D9"/><stop offset="1" stop-color="#fff"/></linearGradient><linearGradient id="prefix__paint5_linear_936_49" x1="12.737" y1="42.038" x2="44.194" y2="-1.959" gradientUnits="userSpaceOnUse"><stop stop-color="#D9D9D9"/><stop offset="1" stop-color="#fff"/></linearGradient><linearGradient id="prefix__paint6_linear_936_49" x1="12.737" y1="42.038" x2="44.194" y2="-1.959" gradientUnits="userSpaceOnUse"><stop stop-color="#D9D9D9"/><stop offset="1" stop-color="#fff"/></linearGradient><linearGradient id="prefix__paint7_linear_936_49" x1="12.737" y1="42.038" x2="44.194" y2="-1.959" gradientUnits="userSpaceOnUse"><stop stop-color="#D9D9D9"/><stop offset="1" stop-color="#fff"/></linearGradient></defs></svg>